# xmcd CD database file
#
# Track frame offsets:
#	150
#	11078
#	24760
#	35849
#	48048
#	61055
#	71066
#	83022
#	95391
#	108489
#	122694
#	135409
#	150992
#	164832
#	176211
#	189725
#	202676
#	212957
#	226394
#	238583
#	256585
#	266583
#	281784
#	294535
#	308794
#	319640
#
# Disc length: 4447 seconds
#
# Revision: 0
# Processed by: cddbd v1.5.1PL0 Copyright (c) Steve Scherf et al.
# Submitted via: CDex 1.51
#
DISCID=68115d1a
DTITLE=Marcel Bianchi  - The Exciting Electric Guitar Of Marcel Bianchi - Vol 2
DYEAR=1900
DGENRE=Jazz
TTITLE0=All The Things You Are
TTITLE1=Arrivederci Roma
TTITLE2=Toi Je T'Aimerai
TTITLE3=Jardins d'Andalousie
TTITLE4=In The Mood For Love
TTITLE5=Homiday's Guitar
TTITLE6=Fumée
TTITLE7=Indian Summer
TTITLE8=Sports d'Hiver
TTITLE9=Stardust
TTITLE10=Night And Day
TTITLE11=Body And Soul
TTITLE12=Laura
TTITLE13=September In The Rain
TTITLE14=Embraceable You
TTITLE15=Love For Sale
TTITLE16=Frenesy
TTITLE17=Peanuts Vendor
TTITLE18=Cielito Lindo
TTITLE19=La Paloma
TTITLE20=Carioca
TTITLE21=Temptation
TTITLE22=La Violetera
TTITLE23=L'Amant Noir
TTITLE24=Ca Va Eclater
TTITLE25=Mon P'tit Fichu
EXTD=
EXTT0=
EXTT1=
EXTT2=
EXTT3=
EXTT4=
EXTT5=
EXTT6=
EXTT7=
EXTT8=
EXTT9=
EXTT10=
EXTT11=
EXTT12=
EXTT13=
EXTT14=
EXTT15=
EXTT16=
EXTT17=
EXTT18=
EXTT19=
EXTT20=
EXTT21=
EXTT22=
EXTT23=
EXTT24=
EXTT25=
PLAYORDER=
